<!-- Generated by IcoMoon.io -->
<svg version="1.1" xmlns="http://www.w3.org/2000/svg" width="1336" height="1024" viewBox="0 0 1336 1024">
<title></title>
<g id="icomoon-ignore">
</g>
<path d="M1055.783 845.717c0.457-5.081 0.889-5.97 0 0zM1325.711 839.899c-10.416-16.005-31.934-21.238-47.99-2.693-13.16 13.16-24.516 27.437-36.354 41.842-184.643 132.233-187.869 1.601-185.786-30.689 8.434-35.643 19.613-66.485 33.458-99.562 33.941-84.751 79.721-155.046 116.507-239.772 22.61-53.681 48.066-107.336 67.857-163.811 14.151-39.505 5.665-81.88-22.61-115.77-31.121-31.070-70.702-36.735-118.793-25.405-65.062 16.945-124.433 50.835-175.345 93.185-8.485 8.485-19.816 14.1-28.301 22.585 0-8.485 2.845-14.1 2.845-19.765 14.125-45.17 31.096-87.545 11.305-138.381-8.485-22.56-19.79-42.35-42.426-56.475-48.066-25.379-93.338-19.79-135.738-8.46-70.702 19.765-127.304 62.115-178.19 110.13-14.125 14.125-31.096 28.199-45.246 45.195 5.64-31.070 14.151-59.346 14.151-90.391 0-76.266-45.246-124.23-121.613-149.66-59.397-16.92-118.793-14.151-178.19-2.82-59.397 11.305-115.948 31.045-166.859 64.935-33.941 22.61-65.062 48.015-82.007 90.391-8.511 22.585-8.511 47.99 0 73.395 11.331 31.070 45.272 48.041 79.212 22.585 39.581-25.43 73.522-56.45 113.103-84.675 59.397-45.221 118.768-84.751 197.98-90.416 25.456-2.82 48.091 8.511 56.551 33.916 2.845 11.28 5.64 28.25 0 39.53-8.46 28.25-16.97 56.475-31.096 81.905-36.761 64.96-76.393 127.050-118.793 192.036-53.731 81.905-113.128 163.76-166.885 245.64-39.555 59.295-76.342 121.461-110.257 180.756-16.97 28.25-28.326 59.295-22.661 93.185 5.691 47.99 70.727 73.42 101.848 59.295 31.070-14.1 48.066-39.53 65.011-64.935 31.146-53.681 62.242-107.31 93.338-160.965 79.187-144.020 166.885-282.401 268.682-409.476 50.911-64.96 107.463-124.23 175.37-172.245 31.070-19.79 62.191-36.735 101.797-39.53 14.151-2.845 25.456 5.64 28.276 19.74 2.82 16.97 8.485 36.735 2.82 53.655-11.305 36.71-25.456 73.42-45.246 107.31-70.702 121.435-144.198 242.871-214.951 364.306-31.096 50.835-59.397 107.285-84.827 160.94-14.125 28.276 0 67.78 31.121 81.905 33.941 16.92 73.496 16.92 90.518-16.945 62.191-121.435 127.253-242.871 192.29-361.461 50.911-96.031 118.768-180.705 212.106-242.845 33.941-22.61 67.857-39.53 110.308-48.015 22.636-5.665 39.606 5.665 36.761 28.225 0 14.125-2.82 28.25-11.331 39.555-28.276 53.655-59.371 104.465-87.672 158.146-48.066 81.88-98.978 163.76-124.433 259.791-11.305 42.375-19.79 87.545-2.82 135.535 23.322 63.461 89.247 113.077 160.153 115.033 2.54 0.508 5.462 0.965 8.816 1.321 35.999 1.982 69.457-7.113 101.797-20.959 32.417-13.846 62.115-32.137 86.732-57.542 16.437-16.996 30.892-35.186 35.11-61.073 1.931-13.769-1.321-28.072-9.4-41.232z"></path>
</svg>
